<?xml version="1.0" encoding="UTF-8"?>
<svg id="Laag_1" data-name="Laag 1" xmlns="http://www.w3.org/2000/svg" viewBox="0 0 472.75 148.48">
  <defs>
    <style>
      .cls-1 {
        fill: #fff;
      }

      .cls-2 {
        fill: #9f7d23;
      }
    </style>
  </defs>
  <path class="cls-1" d="M47.24,91.34c-.27,0-.34.14-.34.27-1.98,12.63-6.35,20.68-17.68,20.68h-10.24c-4.51,0-5.94-2.8-5.94-8.26V32.98c0-5.46,1.43-8.19,5.53-8.19h.61c.21,0,.34-.14.34-.34s-.14-.34-.34-.34H.34c-.2,0-.34.14-.34.34s.14.34.34.34h.61c4.3,0,5.73,2.73,5.73,8.19v71.06c0,5.46-1.43,8.26-5.73,8.26H.34c-.2,0-.34.14-.34.34s.14.34.34.34h40.55c3.21,0,4.64,1.16,4.64,3.96v.61c0,.2.07.34.34.34.2,0,.34-.07.34-.34l1.37-25.87c0-.27-.14-.34-.34-.34Z"/>
  <path class="cls-1" d="M69.32,112.3h-.41c-4.3,0-5.26-2.8-5.26-8.26v-53.04c0-.34-.14-.48-.48-.48-3.21.34-7.51.61-11.88.61-.2,0-.34.14-.34.34s.14.34.34.34h.89c4.3,0,5.32,2.18,5.32,7.58v44.64c0,5.46-.95,8.26-5.26,8.26h-.48c-.2,0-.34.14-.34.34s.14.34.34.34h17.54c.2,0,.34-.14.34-.34s-.14-.34-.34-.34Z"/>
  <path class="cls-1" d="M59.08,37.55c3.35,0,5.46-2.32,5.46-5.46s-2.12-5.39-5.46-5.39-5.46,2.32-5.46,5.39,2.25,5.46,5.46,5.46Z"/>
  <path class="cls-1" d="M111.11,50.18c-13.52,0-23.07,8.26-27.78,19.39h-.55c.2-3.89.27-7.1.27-10.58v-7.99c0-.34-.2-.48-.48-.48-3.21.34-7.51.61-11.88.61-.2,0-.34.14-.34.34s.14.34.34.34h.89c4.3,0,5.32,2.18,5.32,7.58v79.8c0,5.46-.95,8.26-5.26,8.26h-.41c-.21,0-.34.14-.34.34s.14.34.34.34h17.54c.2,0,.34-.14.34-.34s-.14-.34-.34-.34h-.41c-4.3,0-5.26-2.8-5.26-8.26v-32.22c0-3.69-.14-6.96-.34-10.92h.55c4.23,10.1,13.24,17.89,26.21,17.89,17.54,0,30.24-13.86,30.24-33.45,0-17.82-12.01-30.31-28.67-30.31ZM107.9,112.37c-13.79,0-25.39-10.79-25.39-29.35,0-19.66,11.54-30.86,25.67-30.86s24.78,12.36,24.78,29.63c0,20.07-12.63,30.58-25.05,30.58Z"/>
  <path class="cls-1" d="M181.23,113.94c17.54,0,30.24-13.86,30.24-33.45,0-17.82-12.01-30.31-28.67-30.31-13.52,0-23.07,8.26-27.78,19.39h-.55c.2-3.89.27-7.1.27-10.58v-7.99c0-.34-.2-.48-.48-.48-3.21.34-7.51.61-11.88.61-.2,0-.34.14-.34.34s.14.34.34.34h.89c4.3,0,5.32,2.18,5.32,7.58v79.8c0,5.46-.95,8.26-5.26,8.26h-.41c-.21,0-.34.14-.34.34s.14.34.34.34h17.54c.2,0,.34-.14.34-.34s-.14-.34-.34-.34h-.41c-4.3,0-5.26-2.8-5.26-8.26v-32.22c0-3.69-.14-6.96-.34-10.92h.55c4.23,10.1,13.24,17.89,26.21,17.89ZM154.2,83.01c0-19.66,11.54-30.86,25.67-30.86s24.78,12.36,24.78,29.63c0,20.07-12.63,30.58-25.05,30.58-13.79,0-25.39-10.79-25.39-29.35Z"/>
  <path class="cls-1" d="M274.78,80.76c-.41,0-.61.27-.61.68,0,.96.96,2.32.96,5.26,0,11.4-9.42,23.14-24.64,23.14s-27.37-12.9-27.37-29.56c0-7.17,1.78-13.11,4.64-17.68h45.87l.27-.55c-3.55-7.24-11.81-11.88-24.71-11.88-19.11,0-32.43,12.97-32.43,32.29s12.9,31.47,30.1,31.47,29.29-14.13,29.29-28.74c0-1.64-.27-4.44-1.37-4.44ZM248.91,50.86c12.35,0,17.95,6.89,17.95,9.69,0,.96-.68,1.37-2.18,1.37h-36.52c4.91-7.37,12.77-11.06,20.75-11.06Z"/>
  <path class="cls-1" d="M324.62,117.55c0,.2.07.34.34.34.2,0,.34-.07.34-.34l1.37-25.87c0-.27-.14-.34-.34-.34-.27,0-.34.14-.34.27-1.98,12.63-6.35,20.68-17.68,20.68h-10.24c-4.51,0-5.94-2.8-5.94-8.26V32.98c0-5.46,1.43-8.19,5.53-8.19h.61c.21,0,.34-.14.34-.34s-.14-.34-.34-.34h-18.84c-.2,0-.34.14-.34.34s.14.34.34.34h.61c4.3,0,5.73,2.73,5.73,8.19v71.06c0,5.46-1.43,8.26-5.73,8.26h-.61c-.2,0-.34.14-.34.34s.14.34.34.34h40.55c3.21,0,4.64,1.16,4.64,3.96v.61Z"/>
  <path class="cls-1" d="M471.31,18.57c0-.27-.14-.34-.34-.34s-.34.14-.34.34c.07.82.07,1.02.07,1.78,0,2.39-1.23,3.75-4.51,3.75h-42.8c-.2,0-.34.14-.34.34s.14.34.34.34h.61c4.3,0,5.73,2.73,5.73,8.19v71.06c0,5.46-1.43,8.26-5.73,8.26h-.61c-.2,0-.34.14-.34.34s.14.34.34.34h18.84c.21,0,.34-.14.34-.34s-.14-.34-.34-.34h-.61c-4.1,0-5.53-2.8-5.53-8.26v-40c0-2.66,1.16-2.73,2.8-2.73h13.45c7.44,0,11.95,4.71,11.95,10.99v.68c0,.2.07.34.34.34s.34-.14.34-.34v-23.96c0-.2-.07-.34-.34-.34-.21,0-.34.14-.34.34v.68c0,6.28-4.51,10.92-11.95,10.92h-13.45c-1.64,0-2.8-.2-2.8-2.73v-24.92c0-5.46,1.43-8.19,5.94-8.19h12.42c10.72,0,15.36,7.17,17.61,19.66,0,.2.14.34.34.34s.34-.07.34-.34l-1.43-25.87Z"/>
  <path class="cls-2" d="M380.11,23.46l-3.73-12.85c2.36-.64,3.81-2.64,3.81-5.22,0-3.07-2.12-5.39-5.46-5.39s-5.46,2.32-5.46,5.39c0,2.52,1.47,4.49,3.7,5.18l-3.79,13.06c-23.36,2.85-39.48,22.2-39.48,45.95,0,25.94,17.75,44.44,44.51,44.44s45.53-20.68,45.53-46.21-15.59-42.2-39.62-44.34ZM375.86,11.35l22.61,78.99h-5.49l-17.13-78.99ZM391.95,90.34h-3.11l-13.67-13.67V11.35l16.78,78.99ZM373.44,11.35l-17.1,78.99h-5.49l22.58-78.99ZM374.16,11.35v65.32l-13.67,13.67h-3.11l16.78-78.99ZM341.4,90.34h-.1c-2.76-6.27-4.31-13.55-4.31-21.51,0-24.17,13.35-41.35,31.94-44.38l-19.13,65.89h-8.4ZM374.54,113.34c-13.44,0-24.75-7.4-31.35-19.25h17.71l13.63-16.37.13-.13,13.76,16.5h17.83c-6.64,11.98-18.1,19.25-31.72,19.25ZM399.53,90.34l-19.15-65.94c18.62,2.92,32.05,20.5,32.05,44.16,0,8.13-1.54,15.49-4.29,21.78h-8.61Z"/>
  <g>
    <path class="cls-1" d="M193.88,135.28c-.45-1.21-1.13-2.07-2.05-2.59-.92-.51-2.22-.77-3.91-.77-1.89,0-3.34.3-4.34.91-1,.6-1.5,1.48-1.5,2.63,0,.98.37,1.73,1.11,2.26.74.53,1.95.9,3.64,1.12l2.79.37c1.96.26,3.38.77,4.26,1.5.89.74,1.33,1.77,1.33,3.09,0,1.52-.59,2.68-1.77,3.48s-2.9,1.2-5.17,1.2c-4.63,0-7.19-1.54-7.69-4.61h1.05c.28,1.26.96,2.19,2.05,2.8,1.09.6,2.62.91,4.59.91s3.43-.32,4.41-.95c.99-.64,1.48-1.58,1.48-2.82,0-1.07-.39-1.89-1.16-2.47-.78-.57-2.04-.98-3.8-1.21l-2.52-.33c-1.34-.17-2.42-.44-3.25-.8-.83-.36-1.44-.83-1.82-1.4-.38-.57-.57-1.26-.57-2.06,0-1.43.6-2.54,1.8-3.33,1.2-.79,2.89-1.19,5.06-1.19,1.96,0,3.47.32,4.55.95s1.87,1.67,2.39,3.1l-.98.21Z"/>
    <path class="cls-1" d="M201.43,133.65v-2.21h1.03v2.21h-1.03ZM201.46,148.06v-11.95h.98v11.95h-.98Z"/>
    <path class="cls-1" d="M219.97,148.06v-7.55c0-1.29-.35-2.26-1.06-2.92-.71-.66-1.74-.99-3.11-.99-.71,0-1.41.11-2.07.33-.67.22-1.27.52-1.79.91-.56.42-.99.88-1.28,1.39-.29.5-.44,1.03-.44,1.57v7.27h-.98v-11.95h.98v2.54c.59-.92,1.39-1.63,2.39-2.14,1-.51,2.11-.77,3.34-.77,1.6,0,2.83.41,3.7,1.21.87.81,1.3,1.96,1.3,3.45v7.66h-.98Z"/>
    <path class="cls-1" d="M234.31,147.83c-.79.33-1.64.49-2.54.49-1.18,0-2.06-.29-2.63-.87-.57-.58-.86-1.47-.86-2.67v-7.85h-2.37v-.82h2.37v-3.31h.98v3.31h4.77v.82h-4.77v7.9c0,1.77.87,2.65,2.61,2.65.74,0,1.49-.15,2.24-.44l.21.79Z"/>
    <path class="cls-1" d="M237.35,141.8v-.91h8.31v.91h-8.31Z"/>
    <path class="cls-1" d="M264.42,135.28c-.45-1.21-1.13-2.07-2.05-2.59-.92-.51-2.22-.77-3.91-.77-1.89,0-3.34.3-4.34.91-1,.6-1.5,1.48-1.5,2.63,0,.98.37,1.73,1.11,2.26.74.53,1.95.9,3.64,1.12l2.79.37c1.96.26,3.38.77,4.26,1.5.89.74,1.33,1.77,1.33,3.09,0,1.52-.59,2.68-1.77,3.48s-2.9,1.2-5.17,1.2c-4.63,0-7.19-1.54-7.69-4.61h1.05c.28,1.26.96,2.19,2.05,2.8,1.09.6,2.62.91,4.59.91s3.43-.32,4.41-.95c.99-.64,1.48-1.58,1.48-2.82,0-1.07-.39-1.89-1.16-2.47-.78-.57-2.04-.98-3.8-1.21l-2.52-.33c-1.34-.17-2.42-.44-3.25-.8-.83-.36-1.44-.83-1.82-1.4-.38-.57-.57-1.26-.57-2.06,0-1.43.6-2.54,1.8-3.33,1.2-.79,2.89-1.19,5.06-1.19,1.96,0,3.47.32,4.55.95s1.87,1.67,2.39,3.1l-.98.21Z"/>
    <path class="cls-1" d="M278.94,147.83c-.79.33-1.64.49-2.54.49-1.18,0-2.06-.29-2.63-.87-.57-.58-.86-1.47-.86-2.67v-7.85h-2.37v-.82h2.37v-3.31h.98v3.31h4.77v.82h-4.77v7.9c0,1.77.87,2.65,2.61,2.65.74,0,1.49-.15,2.24-.44l.21.79Z"/>
    <path class="cls-1" d="M284.13,142.38c.02,1.65.5,2.93,1.44,3.85s2.26,1.39,3.94,1.39c1.26,0,2.31-.22,3.14-.68.84-.45,1.41-1.09,1.7-1.91h.93c-.33,1.1-.99,1.94-1.98,2.53-.99.58-2.27.87-3.82.87-2,0-3.56-.55-4.67-1.64-1.11-1.09-1.67-2.63-1.67-4.6,0-1.27.25-2.4.75-3.37.5-.97,1.22-1.73,2.18-2.27s2.08-.82,3.37-.82c1.92,0,3.42.53,4.49,1.6,1.07,1.06,1.61,2.54,1.61,4.44v.61h-11.41ZM294.59,141.59c-.02-1.6-.47-2.84-1.37-3.71-.9-.88-2.16-1.32-3.77-1.32s-2.81.45-3.76,1.36c-.95.91-1.47,2.13-1.55,3.67h10.46Z"/>
    <path class="cls-1" d="M302.26,148.06v-11.13h-2.37v-.82h2.37v-1.35c0-1.1.36-1.96,1.07-2.58.71-.62,1.7-.93,2.96-.93.81,0,1.52.11,2.14.33l-.23.79c-.64-.19-1.24-.28-1.82-.28-2.1,0-3.14.89-3.14,2.68v1.35h4.47v.82h-4.47v11.13h-.98Z"/>
    <path class="cls-1" d="M322.76,148.06v-2.49c-.56.9-1.34,1.59-2.33,2.06-.99.47-2.14.71-3.45.71-1.57,0-2.78-.31-3.63-.94-.85-.63-1.28-1.53-1.28-2.69,0-1.24.52-2.17,1.56-2.77,1.04-.61,2.69-.95,4.96-1.03l4.17-.12v-.7c0-1.2-.36-2.08-1.07-2.67-.71-.58-1.81-.87-3.28-.87-2.69,0-4.26.76-4.73,2.28l-.89-.16c.54-1.96,2.42-2.94,5.64-2.94,3.52,0,5.29,1.45,5.29,4.36v7.96h-.95ZM322.76,141.57l-4.15.12c-1.94.06-3.35.33-4.23.8-.88.47-1.32,1.2-1.32,2.18,0,.9.36,1.6,1.08,2.11s1.73.76,3.04.76c.71,0,1.41-.1,2.08-.3.68-.2,1.26-.48,1.76-.84.56-.4.99-.85,1.28-1.34.29-.49.44-1,.44-1.53v-1.96Z"/>
    <path class="cls-1" d="M341.19,148.06v-7.55c0-1.29-.35-2.26-1.06-2.92-.71-.66-1.74-.99-3.11-.99-.71,0-1.41.11-2.07.33-.67.22-1.27.52-1.79.91-.56.42-.99.88-1.28,1.39-.29.5-.44,1.03-.44,1.57v7.27h-.98v-11.95h.98v2.54c.59-.92,1.39-1.63,2.39-2.14,1-.51,2.11-.77,3.34-.77,1.6,0,2.83.41,3.7,1.21.87.81,1.3,1.96,1.3,3.45v7.66h-.98Z"/>
    <path class="cls-1" d="M359.23,148.06v-2.49c-.59.92-1.39,1.62-2.39,2.12-1,.5-2.12.75-3.34.75-1.51,0-2.67-.4-3.49-1.2-.82-.8-1.23-1.92-1.23-3.37v-7.75h.98v7.66c0,1.23.34,2.17,1.01,2.82.68.65,1.63.98,2.88.98.7,0,1.38-.1,2.05-.31.67-.21,1.27-.51,1.79-.9,1.16-.89,1.75-1.87,1.75-2.96v-7.29h.98v11.95h-.98Z"/>
    <path class="cls-1" d="M376.56,138.96c-.29-.84-.82-1.45-1.56-1.83-.74-.38-1.79-.57-3.14-.57s-2.4.21-3.16.64-1.13,1.02-1.13,1.78c0,.53.12.94.36,1.22s.63.52,1.16.7c.54.18,1.3.34,2.29.48l1.47.23c1.35.22,2.37.46,3.07.73.7.27,1.19.61,1.47,1.01s.42.92.42,1.56c0,1.16-.47,2.04-1.42,2.63-.95.59-2.35.89-4.22.89-3.48,0-5.47-1.19-5.99-3.56h.93c.51,1.83,2.19,2.75,5.03,2.75,1.55,0,2.72-.22,3.5-.68.78-.45,1.18-1.11,1.18-1.98,0-.53-.13-.94-.38-1.24-.26-.3-.68-.56-1.28-.76-.6-.2-1.43-.38-2.5-.54l-1.42-.21c-1.21-.19-2.15-.41-2.81-.66-.66-.26-1.13-.58-1.41-.99-.28-.4-.42-.92-.42-1.54,0-1.01.47-1.81,1.41-2.4.94-.59,2.22-.89,3.83-.89s2.86.24,3.75.72c.89.48,1.5,1.25,1.84,2.31l-.89.19Z"/>
    <path class="cls-1" d="M394.44,148.06l-5.73-7.57-3.84,2.8v4.77h-.98v-16.63h.98v10.83l8.57-6.15h1.4l-5.36,3.84,6.12,8.1h-1.16Z"/>
    <path class="cls-1" d="M400.36,142.38c.02,1.65.5,2.93,1.44,3.85s2.26,1.39,3.94,1.39c1.26,0,2.31-.22,3.14-.68.84-.45,1.41-1.09,1.7-1.91h.93c-.33,1.1-.99,1.94-1.98,2.53-.99.58-2.27.87-3.82.87-2,0-3.56-.55-4.67-1.64-1.11-1.09-1.67-2.63-1.67-4.6,0-1.27.25-2.4.75-3.37.5-.97,1.22-1.73,2.18-2.27s2.08-.82,3.37-.82c1.92,0,3.42.53,4.49,1.6,1.07,1.06,1.61,2.54,1.61,4.44v.61h-11.41ZM410.82,141.59c-.02-1.6-.47-2.84-1.37-3.71-.9-.88-2.16-1.32-3.77-1.32s-2.81.45-3.76,1.36c-.95.91-1.47,2.13-1.55,3.67h10.46Z"/>
    <path class="cls-1" d="M417.94,148.06v-11.95h.98v2.56c.54-.87,1.24-1.55,2.1-2.03s1.79-.72,2.82-.72c.42,0,.82.03,1.21.09l-.12.91c-.31-.08-.69-.12-1.14-.12-1.57,0-2.86.56-3.87,1.68-.36.42-.61.8-.77,1.15-.16.35-.23.73-.23,1.15v7.27h-.98Z"/>
    <path class="cls-1" d="M441.07,148.06l-5.73-7.57-3.84,2.8v4.77h-.98v-16.63h.98v10.83l8.57-6.15h1.4l-5.36,3.84,6.12,8.1h-1.16Z"/>
  </g>
</svg>